# xmcd
#
# Track frame offsets:
#	150
#	22862
#	41051
#	67714
#	89015
#	113428
#	133229
#	154043
#	177067
#	193897
#	212461
#
# Disc length: 3132 seconds
#
# Revision: 1
# Processed by: cddbd v1.5.2PL0 Copyright (c) Steve Scherf et al.
# Submitted via: audiograbber 1.83.01
#
DISCID=8a0c3a0b
DTITLE=Stan Webb with Chicken Shack - Reflections - Changes
DYEAR=2008
DGENRE=Blues
TTITLE0=Foolish Things
TTITLE1=Were You Pushed Or Did You Fall?
TTITLE2=Sweetest Little Thing
TTITLE3=Have You Seen My Heart
TTITLE4=Don't Worry About A Thing
TTITLE5=Burning Love
TTITLE6=Will You Dance With Me
TTITLE7=Don't Worry About A Thing (Bonus)
TTITLE8=Were You Pushed Or Did You Fall (Bonus)
TTITLE9=Will You Dance With Me (Bonus)
TTITLE10=Foolish Things (Bonus)
EXTD=YEAR: 2008
EXTT0=
EXTT1=
EXTT2=
EXTT3=
EXTT4=
EXTT5=
EXTT6=
EXTT7=
EXTT8=
EXTT9=
EXTT10=
PLAYORDER=
